<svg width="23" height="23" viewBox="0 0 23 23" fill="none" xmlns="http://www.w3.org/2000/svg">
<path d="M11.7772 2.24512L3.55085 4.98725V13.2136C3.55085 17.7574 7.23344 21.44 11.7772 21.44C16.321 21.44 20.0036 17.7574 20.0036 13.2136V4.98725L11.7772 2.24512ZM18.4612 13.2136C18.4612 16.9048 15.4684 19.8976 11.7772 19.8976C8.08607 19.8976 5.09329 16.9048 5.09329 13.2136V6.14408L11.7772 3.78757L18.4612 6.14408V13.2136Z" fill="#62E076"/>
<path d="M8.91522 11.052C8.84374 10.9802 8.75878 10.9232 8.66522 10.8844C8.57165 10.8455 8.47133 10.8255 8.37001 10.8255C8.26869 10.8255 8.16837 10.8455 8.0748 10.8844C7.98124 10.9232 7.89628 10.9802 7.8248 11.052C7.75299 11.1235 7.69601 11.2085 7.65713 11.302C7.61825 11.3956 7.59824 11.4959 7.59824 11.5972C7.59824 11.6986 7.61825 11.7989 7.65713 11.8925C7.69601 11.986 7.75299 12.071 7.8248 12.1425L10.5969 14.9146L10.6419 14.9596C10.7095 15.0273 10.7898 15.0811 10.8782 15.1177C10.9666 15.1544 11.0614 15.1733 11.1571 15.1733C11.2528 15.1733 11.3476 15.1544 11.436 15.1177C11.5244 15.0811 11.6047 15.0273 11.6724 14.9596L16.4604 10.1716C16.5281 10.1039 16.5819 10.0236 16.6185 9.93522C16.6552 9.84681 16.6741 9.75204 16.6741 9.65633C16.6741 9.56062 16.6552 9.46585 16.6185 9.37744C16.5819 9.28903 16.5281 9.20872 16.4604 9.14111L16.4004 9.08113C16.3328 9.01338 16.2525 8.95964 16.1641 8.92297C16.0756 8.88631 15.9809 8.86743 15.8852 8.86743C15.7895 8.86743 15.6947 8.88631 15.6063 8.92297C15.5179 8.95964 15.4376 9.01338 15.3699 9.08113L11.1561 13.2929L8.91522 11.052Z" fill="#62E076"/>
</svg>
